<?xml version="1.0" encoding="utf-8"?>
<!-- Generator: Adobe Illustrator 24.2.0, SVG Export Plug-In . SVG Version: 6.00 Build 0)  -->
<svg version="1.1"
	 id="Camada_1" xmlns:cc="http://creativecommons.org/ns#" xmlns:dc="http://purl.org/dc/elements/1.1/" xmlns:inkscape="http://www.inkscape.org/namespaces/inkscape" xmlns:rdf="http://www.w3.org/1999/02/22-rdf-syntax-ns#" xmlns:sodipodi="http://sodipodi.sourceforge.net/DTD/sodipodi-0.dtd" xmlns:svg="http://www.w3.org/2000/svg"
	 xmlns="http://www.w3.org/2000/svg" xmlns:xlink="http://www.w3.org/1999/xlink" x="0px" y="0px" viewBox="0 0 100 99.3"
	 style="enable-background:new 0 0 100 99.3;" xml:space="preserve">
<g transform="translate(0,-952.36218)">
	<path d="M50,958.4c-2.9,0-5.7,0.3-8.5,0.8c-0.8,0.1-1.4,0.7-1.6,1.4l-2.1,7.9c-4.1,1.5-7.8,3.6-11,6.4l-7.9-2.1
		c-0.7-0.2-1.5,0-2,0.6c-1.8,2.1-3.5,4.4-5,6.9c-1.5,2.5-2.6,5.1-3.5,7.8c-0.2,0.7,0,1.5,0.5,2.1l5.8,5.8c-0.4,2.1-0.7,4.2-0.7,6.4
		s0.3,4.3,0.7,6.4l-5.8,5.8c-0.5,0.5-0.7,1.3-0.5,2.1c0.9,2.6,2.1,5.2,3.5,7.8c1.5,2.5,3.1,4.8,5,6.9c0.5,0.6,1.3,0.8,2,0.6l7.9-2.1
		c3.2,2.7,6.9,4.9,11,6.4l2.1,7.9c0.2,0.7,0.8,1.3,1.6,1.4c2.7,0.5,5.6,0.8,8.5,0.8s5.7-0.3,8.5-0.8c0.8-0.1,1.4-0.7,1.6-1.4
		l2.1-7.9c4.1-1.5,7.8-3.6,11-6.4l7.9,2.1c0.7,0.2,1.5,0,2-0.6c1.8-2.1,3.5-4.4,5-6.9c1.5-2.5,2.6-5.1,3.5-7.8
		c0.2-0.7,0-1.5-0.5-2.1l-5.6-5.6c-0.8-0.8-2.1-0.8-2.8,0s-0.8,2.1,0,2.8l4.7,4.6c-0.8,2-1.6,4-2.7,6c-1.1,1.9-2.4,3.6-3.8,5.3
		l-7.5-2c-0.7-0.2-1.4,0-1.9,0.5c-3.3,3-7.3,5.3-11.6,6.7c-0.6,0.2-1.1,0.7-1.3,1.4l-2,7.5c-2.1,0.4-4.3,0.7-6.5,0.7
		s-4.4-0.3-6.5-0.7l-2-7.5c-0.2-0.7-0.7-1.2-1.3-1.4c-4.3-1.4-8.3-3.7-11.6-6.7c-0.5-0.5-1.2-0.6-1.9-0.5l-7.5,2
		c-1.4-1.7-2.7-3.4-3.8-5.3c-1.1-1.9-1.9-3.9-2.7-6l5.5-5.5c0.5-0.5,0.7-1.2,0.6-1.8c-0.5-2.2-0.7-4.4-0.7-6.7
		c0-2.3,0.3-4.6,0.7-6.7c0.1-0.7-0.1-1.3-0.6-1.8l-5.5-5.5c0.8-2,1.6-4,2.7-6c1.1-1.9,2.4-3.6,3.8-5.3l7.5,2c0.7,0.2,1.4,0,1.9-0.5
		c3.3-3,7.3-5.3,11.6-6.7c0.6-0.2,1.1-0.7,1.3-1.4l2-7.5c2.1-0.4,4.3-0.7,6.5-0.7s4.4,0.3,6.5,0.7l2,7.5c0.2,0.7,0.7,1.2,1.3,1.4
		c4.3,1.4,8.3,3.7,11.6,6.7c0.5,0.5,1.2,0.6,1.9,0.5l7.5-2c1.4,1.7,2.7,3.4,3.8,5.3c1.1,1.9,1.9,3.9,2.7,6l-5.5,5.5
		c-0.5,0.5-0.7,1.2-0.6,1.8c0.5,2.2,0.7,4.4,0.7,6.7c0,1.1,0.9,2,2,2c1.1,0,2-0.9,2-2c0,0,0,0,0-0.1c0-2.2-0.3-4.3-0.7-6.4l5.8-5.8
		c0.5-0.5,0.7-1.3,0.5-2.1c-0.9-2.6-2.1-5.2-3.5-7.8c-1.5-2.5-3.1-4.8-5-6.9c-0.5-0.6-1.3-0.8-2-0.6l-7.9,2.1
		c-3.2-2.7-6.9-4.9-11-6.4l-2.1-7.9c-0.2-0.7-0.8-1.3-1.6-1.4C55.7,958.7,52.9,958.4,50,958.4z M50,981.4c-11.6,0-21,9.4-21,21
		c0,11.6,9.4,21,21,21s21-9.4,21-21C71,990.8,61.6,981.4,50,981.4z M50,985.4c9.4,0,17,7.6,17,17c0,9.4-7.6,17-17,17s-17-7.6-17-17
		C33,992.9,40.6,985.4,50,985.4z"/>
</g>
</svg>
