<?xml version="1.0" encoding="utf-8"?>
<!-- Generator: Adobe Illustrator 24.2.0, SVG Export Plug-In . SVG Version: 6.00 Build 0)  -->
<svg version="1.1" id="Camada_1" xmlns="http://www.w3.org/2000/svg" xmlns:xlink="http://www.w3.org/1999/xlink" x="0px" y="0px"
	 viewBox="0 0 128 130.8" style="enable-background:new 0 0 128 130.8;" xml:space="preserve">
<path d="M98,57v26c0,1.1,0.9,2,2,2h26c1.1,0,2-0.9,2-2c0-15.5-12.5-28-28-28C98.9,55,98,55.9,98,57z M102,59.1
	c11.7,1,20.9,10.2,21.9,21.9H102V59.1z"/>
<path d="M94.9,36.9c0.9,0.6,2.2,0.3,2.8-0.6l0.3-0.5V47c0,1.1,0.9,2,2,2s2-0.9,2-2V35.8l0.3,0.5c0.6,0.9,1.8,1.2,2.8,0.6
	s1.2-1.8,0.6-2.8l0,0l-4-6.2c-0.6-0.9-1.8-1.2-2.8-0.6c-0.2,0.2-0.4,0.4-0.6,0.6l-4,6.2C93.7,35.1,94,36.3,94.9,36.9z"/>
<path d="M106.9,18.5c0.9,0.6,2.2,0.4,2.8-0.5c0,0,0,0,0,0l0.3-0.5V25c0,1.1,0.9,2,2,2s2-0.9,2-2v-7.5l0.3,0.5
	c0.6,0.9,1.9,1.1,2.8,0.5c0.9-0.6,1.1-1.9,0.5-2.8c0,0,0,0,0,0l-4-5.9c-0.6-0.9-1.9-1.1-2.8-0.5c-0.2,0.1-0.4,0.3-0.5,0.5l-4,5.9
	C105.7,16.7,106,17.9,106.9,18.5C106.9,18.5,106.9,18.5,106.9,18.5z"/>
<path d="M81.9,18.5c0.9,0.6,2.2,0.4,2.8-0.5c0,0,0,0,0,0l0.3-0.5V25c0,1.1,0.9,2,2,2s2-0.9,2-2v-7.5l0.3,0.5
	c0.6,0.9,1.9,1.1,2.8,0.5c0.9-0.6,1.1-1.9,0.5-2.8c0,0,0,0,0,0l-4-5.9C88,9,86.8,8.7,85.9,9.3c-0.2,0.1-0.4,0.3-0.5,0.5l-4,5.9
	C80.7,16.7,81,17.9,81.9,18.5C81.9,18.5,81.9,18.5,81.9,18.5z"/>
<path d="M3.9,33.3c-1.1,2.2-0.7,4.9,1.1,6.6L6.2,41c1.1,1.1,2.5,1.7,4.1,1.7c0.9,0,1.7-0.2,2.5-0.6c0.8,2.3,3,3.9,5.4,3.9h1.7
	c2.5,0,4.7-1.6,5.4-3.9c0.8,0.4,1.6,0.6,2.5,0.6c1.5,0,3-0.6,4.1-1.7l1.2-1.2c1.1-1.1,1.7-2.5,1.7-4.1c0-0.9-0.2-1.7-0.6-2.5
	c2.3-0.8,3.9-3,3.9-5.4v-1.7c0-2.5-1.6-4.7-3.9-5.4c0.5-0.9,0.7-1.9,0.6-2.9c-0.1-1.4-0.7-2.7-1.7-3.7L31.8,13
	c-1.1-1.1-2.5-1.7-4.1-1.7c-0.9,0-1.7,0.2-2.5,0.6c-0.8-2.3-3-3.9-5.4-3.9h-1.7c-2.5,0-4.7,1.6-5.4,3.9c-0.8-0.4-1.6-0.6-2.5-0.6
	c-1.5,0-3,0.6-4.1,1.7L5,14.2c-1.8,1.7-2.2,4.4-1.1,6.6c-2.3,0.8-3.9,3-3.9,5.4v1.7C0,30.3,1.6,32.5,3.9,33.3z M4,26.2
	c0-0.9,0.6-1.6,1.5-1.7h2.1c0.3-1.3,0.8-2.6,1.6-3.8l-1.5-1.5c-0.6-0.7-0.5-1.6,0.1-2.2L9,15.8c0.3-0.3,0.8-0.5,1.2-0.5
	c0.4,0,0.7,0.1,1,0.4l1.5,1.5c1.2-0.7,2.4-1.3,3.8-1.6v-2.1c0.1-0.9,0.8-1.5,1.7-1.5h1.7c0.9,0,1.6,0.6,1.7,1.5v2.1
	c1.3,0.3,2.6,0.8,3.8,1.6l1.5-1.5c0.3-0.3,0.6-0.4,1-0.4c0.5,0,0.9,0.2,1.2,0.5l1.2,1.2c0.7,0.6,0.7,1.6,0.1,2.2l-1.5,1.5
	c0.7,1.2,1.3,2.4,1.6,3.8h2.1c0.9,0.1,1.5,0.8,1.5,1.7v1.7c0.1,0.9-0.6,1.6-1.5,1.7h-2.1c-0.3,1.3-0.8,2.6-1.6,3.8l1.5,1.5
	c0.6,0.7,0.5,1.6-0.1,2.2L29,38.2c-0.3,0.3-0.8,0.5-1.2,0.5c-0.4,0-0.7-0.1-1-0.4l-1.5-1.5c-1.2,0.7-2.4,1.3-3.8,1.6v2.1
	c-0.1,0.9-0.8,1.5-1.7,1.5h-1.7c-0.9,0-1.6-0.6-1.7-1.5v-2.1c-1.3-0.3-2.6-0.8-3.8-1.6l-1.5,1.5c-0.3,0.3-0.6,0.4-1,0.4
	c-0.5,0-0.9-0.2-1.2-0.5L7.8,37c-0.6-0.6-0.7-1.6-0.1-2.2l1.5-1.5c-0.7-1.2-1.3-2.4-1.6-3.8H5.5C4.6,29.4,4,28.7,4,27.8V26.2z"/>
<path d="M19,34c3.9,0,7-3.1,7-7s-3.1-7-7-7c-3.9,0-7,3.1-7,7C12,30.9,15.1,34,19,34C19,34,19,34,19,34z M19,24c1.7,0,3,1.3,3,3
	s-1.3,3-3,3s-3-1.3-3-3c0,0,0,0,0,0C16,25.3,17.3,24,19,24z"/>
<path d="M126,115h-19.6c8.4-5.1,13.6-14.2,13.6-24c0-1.1-0.9-2-2-2H94V65c0-1.1-0.9-2-2-2c-15.5,0-28,12.5-28,28
	c0,9.8,5.2,19,13.6,24H68v-2.9c-1.5-1.7-2.9-3.6-4-5.7v8.5h-6V26h6v49.5c1.1-2,2.5-3.9,4-5.7V26c0-2.2-1.8-4-4-4h-6
	c-2.2,0-4,1.8-4,4v89h-4V46c0-2.2-1.8-4-4-4h-6c-2.2,0-4,1.8-4,4v69h-4V64c0-2.2-1.8-4-4-4h-6c-2.2,0-4,1.8-4,4v51h-4V89
	c0-2.2-1.8-4-4-4H4c-2.2,0-4,1.8-4,4v28c0,1.1,0.9,2,2,2h124c1.1,0,2-0.9,2-2S127.1,115,126,115z M68,91c0-12.5,9.6-22.9,22-23.9V91
	c0,1.1,0.9,2,2,2h23.9c-1.1,13.2-12.7,23-25.9,21.9C77.6,113.9,68,103.5,68,91z M40,46h6v69h-6V46z M22,64h6v51h-6V64z M4,89h6v26H4
	V89z"/>
</svg>
